<svg xmlns="http://www.w3.org/2000/svg" viewBox="0 0 512 512" width="512" height="512">
  <rect width="512" height="512" rx="104" fill="#0f172a"/>
  <defs>
    <clipPath id="book"><rect x="88" y="60" width="336" height="392" rx="26"/></clipPath>
  </defs>
  <g clip-path="url(#book)">
    <rect x="88" y="60" width="336" height="392" fill="#38bdf8"/>
    <rect x="88" y="60" width="54" height="392" fill="#0ea5e9"/>
    <rect x="142" y="60" width="10" height="392" fill="#0284c7"/>
    <rect x="398" y="60" width="26" height="392" fill="#e0f2fe"/>
    <rect x="404" y="60" width="2" height="392" fill="#94a3b8" opacity="0.5"/>
    <g transform="translate(174 166) scale(0.35)" fill="#0f172a">
      <path d="M0 80C0 53.5 21.5 32 48 32l96 0c26.5 0 48 21.5 48 48l0 16 192 0 0-16c0-26.5 21.5-48 48-48l96 0c26.5 0 48 21.5 48 48l0 96c0 26.5-21.5 48-48 48l-96 0c-26.5 0-48-21.5-48-48l0-16-192 0 0 16c0 1.7-.1 3.4-.3 5L272 288l96 0c26.5 0 48 21.5 48 48l0 96c0 26.5-21.5 48-48 48l-96 0c-26.5 0-48-21.5-48-48l0-96c0-1.7 .1-3.4 .3-5L144 224l-96 0c-26.5 0-48-21.5-48-48L0 80z"/>
    </g>
  </g>
  <rect x="88" y="60" width="336" height="392" rx="26" fill="none" stroke="#0f172a" stroke-width="6" opacity="0.35"/>
</svg>
